<svg width="363" height="332" viewBox="0 0 363 332" fill="none" xmlns="http://www.w3.org/2000/svg">
<path d="M357.745 331.431H0.290809C0.252619 331.431 0.214804 331.423 0.179521 331.408C0.144239 331.393 0.11218 331.37 0.085176 331.343C0.0581719 331.315 0.036751 331.282 0.0221365 331.245C0.007522 331.209 0 331.17 0 331.13C0 331.091 0.007522 331.051 0.0221365 331.015C0.036751 330.979 0.0581719 330.945 0.085176 330.918C0.11218 330.89 0.144239 330.867 0.179521 330.852C0.214804 330.837 0.252619 330.829 0.290809 330.829H357.745C357.822 330.829 357.896 330.861 357.95 330.918C358.005 330.974 358.035 331.05 358.035 331.13C358.035 331.21 358.005 331.286 357.95 331.343C357.896 331.399 357.822 331.431 357.745 331.431H357.745Z" fill="#292A2E"/>
<g opacity="0.65">
<path d="M357.745 331.431H0.290809C0.252619 331.431 0.214804 331.423 0.179521 331.408C0.144239 331.393 0.11218 331.37 0.085176 331.343C0.0581719 331.315 0.036751 331.282 0.0221365 331.245C0.007522 331.209 0 331.17 0 331.13C0 331.091 0.007522 331.051 0.0221365 331.015C0.036751 330.979 0.0581719 330.945 0.085176 330.918C0.11218 330.89 0.144239 330.867 0.179521 330.852C0.214804 330.837 0.252619 330.829 0.290809 330.829H357.745C357.822 330.829 357.896 330.861 357.95 330.918C358.005 330.974 358.035 331.05 358.035 331.13C358.035 331.21 358.005 331.286 357.95 331.343C357.896 331.399 357.822 331.431 357.745 331.431H357.745Z" fill="#292A2E"/>
</g>
<path d="M25.177 330.902L24.3611 330.74L37.1134 199.775L37.9294 199.937L25.177 330.902Z" fill="#494949"/>
<path d="M72.6611 330.902L71.8451 330.74L84.5975 199.775L85.413 199.937L72.6611 330.902Z" fill="#494949"/>
<path d="M177.621 330.902L178.437 330.74L165.685 199.775L164.869 199.937L177.621 330.902Z" fill="#494949"/>
<path d="M130.138 330.902L130.953 330.74L118.201 199.775L117.385 199.937L130.138 330.902Z" fill="#494949"/>
<path d="M113.226 142.137L112.402 142.251L119.852 199.914L120.675 199.801L113.226 142.137Z" fill="#494949"/>
<path d="M27.7177 142.137L26.8941 142.25L34.3438 199.913L35.1674 199.8L27.7177 142.137Z" fill="#494949"/>
<path d="M120.604 195.633H36.9676C34.711 195.633 32.8817 197.524 32.8817 199.856V199.856C32.8817 202.189 34.711 204.079 36.9676 204.079H120.604C122.861 204.079 124.69 202.189 124.69 199.856V199.856C124.69 197.524 122.861 195.633 120.604 195.633Z" fill="#292A2E"/>
<path opacity="0.8" d="M120.604 195.633H36.9676C34.711 195.633 32.8817 197.524 32.8817 199.856V199.856C32.8817 202.189 34.711 204.079 36.9676 204.079H120.604C122.861 204.079 124.69 202.189 124.69 199.856V199.856C124.69 197.524 122.861 195.633 120.604 195.633Z" fill="white"/>
<path d="M120.603 204.508H36.9676C35.7812 204.497 34.6473 204.001 33.8124 203.13C32.9775 202.259 32.5091 201.082 32.5091 199.856C32.5091 198.63 32.9775 197.454 33.8124 196.582C34.6473 195.711 35.7812 195.216 36.9676 195.204H120.603C121.789 195.216 122.923 195.711 123.758 196.582C124.593 197.454 125.061 198.63 125.061 199.856C125.061 201.082 124.593 202.259 123.758 203.13C122.923 204.001 121.789 204.497 120.603 204.508ZM36.9676 196.063C36.0009 196.073 35.0772 196.478 34.3972 197.188C33.7172 197.898 33.3358 198.857 33.3358 199.856C33.3358 200.855 33.7172 201.814 34.3972 202.524C35.0772 203.235 36.0009 203.639 36.9676 203.65H120.603C121.569 203.639 122.493 203.235 123.173 202.524C123.853 201.814 124.234 200.855 124.234 199.856C124.234 198.857 123.853 197.898 123.173 197.188C122.493 196.478 121.569 196.073 120.603 196.063H36.9676Z" fill="#292A2E"/>
<path d="M166.508 195.633H82.8718C80.6152 195.633 78.7859 197.524 78.7859 199.856V199.856C78.7859 202.189 80.6152 204.079 82.8718 204.079H166.508C168.765 204.079 170.594 202.189 170.594 199.856V199.856C170.594 197.524 168.765 195.633 166.508 195.633Z" fill="white"/>
<path d="M166.509 204.508H82.8722C82.2774 204.514 81.6874 204.398 81.1362 204.167C80.585 203.936 80.0837 203.594 79.6611 203.162C79.2385 202.729 78.903 202.214 78.674 201.647C78.4451 201.08 78.3272 200.471 78.3272 199.856C78.3272 199.242 78.4451 198.633 78.674 198.066C78.903 197.498 79.2385 196.983 79.6611 196.551C80.0837 196.118 80.585 195.776 81.1362 195.545C81.6874 195.314 82.2774 195.198 82.8722 195.204H166.509C167.104 195.198 167.694 195.314 168.245 195.545C168.796 195.776 169.297 196.118 169.72 196.551C170.143 196.983 170.478 197.498 170.707 198.066C170.936 198.633 171.054 199.242 171.054 199.856C171.054 200.471 170.936 201.08 170.707 201.647C170.478 202.214 170.143 202.729 169.72 203.162C169.297 203.594 168.796 203.936 168.245 204.167C167.694 204.398 167.104 204.514 166.509 204.508ZM82.8722 196.063C82.3869 196.057 81.9053 196.152 81.4555 196.34C81.0056 196.528 80.5963 196.807 80.2513 197.159C79.9063 197.512 79.6324 197.932 79.4455 198.395C79.2585 198.858 79.1623 199.355 79.1623 199.856C79.1623 200.358 79.2585 200.854 79.4455 201.317C79.6324 201.78 79.9063 202.2 80.2513 202.553C80.5963 202.906 81.0056 203.184 81.4555 203.373C81.9053 203.561 82.3869 203.655 82.8722 203.65H166.509C166.994 203.655 167.476 203.561 167.925 203.373C168.375 203.184 168.785 202.906 169.13 202.553C169.475 202.2 169.749 201.78 169.935 201.317C170.122 200.854 170.219 200.358 170.219 199.856C170.219 199.355 170.122 198.858 169.935 198.395C169.749 197.932 169.475 197.512 169.13 197.159C168.785 196.807 168.375 196.528 167.925 196.34C167.476 196.152 166.994 196.057 166.509 196.063H82.8722Z" fill="#292A2E"/>
<path d="M108.644 142.193H27.5304C26.2043 142.193 24.9235 141.694 23.9271 140.79C22.9307 139.885 22.2868 138.637 22.1156 137.278L16.7502 94.6954C16.6498 93.8994 16.7149 93.0905 16.9412 92.3226C17.1674 91.5547 17.5496 90.8455 18.0621 90.2424C18.5746 89.6393 19.2058 89.1561 19.9134 88.8251C20.621 88.4941 21.3887 88.323 22.1654 88.323H103.279C104.605 88.323 105.886 88.8218 106.882 89.7261C107.878 90.6305 108.522 91.8787 108.694 93.2378L114.059 135.821C114.159 136.616 114.094 137.425 113.868 138.193C113.642 138.961 113.259 139.67 112.747 140.273C112.235 140.876 111.603 141.359 110.896 141.691C110.188 142.022 109.421 142.193 108.644 142.193Z" fill="#292A2E"/>
<path opacity="0.8" d="M108.644 142.193H27.5304C26.2043 142.193 24.9235 141.694 23.9271 140.79C22.9307 139.885 22.2868 138.637 22.1156 137.278L16.7502 94.6954C16.6498 93.8994 16.7149 93.0905 16.9412 92.3226C17.1674 91.5547 17.5496 90.8455 18.0621 90.2424C18.5746 89.6393 19.2058 89.1561 19.9134 88.8251C20.621 88.4941 21.3887 88.323 22.1654 88.323H103.279C104.605 88.323 105.886 88.8218 106.882 89.7261C107.878 90.6305 108.522 91.8787 108.694 93.2378L114.059 135.821C114.159 136.616 114.094 137.425 113.868 138.193C113.642 138.961 113.259 139.67 112.747 140.273C112.235 140.876 111.603 141.359 110.896 141.691C110.188 142.022 109.421 142.193 108.644 142.193Z" fill="white"/>
<path d="M108.644 142.622H27.5304C26.1044 142.619 24.728 142.081 23.6564 141.109C22.5849 140.136 21.891 138.795 21.7035 137.334L16.338 94.7517C16.2301 93.8952 16.3002 93.0247 16.5436 92.1984C16.787 91.3721 17.1982 90.609 17.7497 89.96C18.3012 89.311 18.9803 88.7911 19.7417 88.4349C20.5031 88.0787 21.3293 87.8945 22.165 87.8945H103.279C104.705 87.8979 106.082 88.4358 107.153 89.4084C108.225 90.3811 108.919 91.7225 109.106 93.1837L114.471 135.766C114.579 136.622 114.509 137.493 114.266 138.319C114.022 139.145 113.611 139.909 113.059 140.557C112.508 141.206 111.829 141.726 111.067 142.083C110.306 142.439 109.48 142.623 108.644 142.623V142.622ZM22.165 88.7524C21.4475 88.7524 20.7381 88.9106 20.0844 89.2164C19.4307 89.5223 18.8477 89.9687 18.3742 90.526C17.9007 91.0832 17.5477 91.7384 17.3387 92.4479C17.1297 93.1573 17.0696 93.9047 17.1623 94.64L22.5273 137.223C22.6883 138.477 23.284 139.629 24.2041 140.464C25.1241 141.299 26.306 141.761 27.5304 141.764H108.644C109.362 141.764 110.071 141.605 110.725 141.299C111.379 140.993 111.962 140.547 112.436 139.99C112.909 139.432 113.262 138.777 113.471 138.067C113.68 137.358 113.74 136.61 113.647 135.875L108.282 93.2923C108.121 92.0379 107.525 90.8865 106.605 90.0516C105.685 89.2167 104.503 88.7551 103.279 88.7524H22.165Z" fill="#292A2E"/>
<path d="M113.231 142.193H32.1173C30.7912 142.193 29.5103 141.694 28.5138 140.79C27.5173 139.885 26.8734 138.637 26.702 137.278L21.3366 94.6954C21.2364 93.8995 21.3016 93.0906 21.5279 92.3227C21.7542 91.5549 22.1364 90.8458 22.6489 90.2427C23.1614 89.6396 23.7925 89.1564 24.5 88.8254C25.2075 88.4944 25.9752 88.3231 26.7519 88.323H107.866C109.192 88.323 110.473 88.8217 111.469 89.7261C112.465 90.6305 113.109 91.8787 113.281 93.2378L118.646 135.821C118.746 136.616 118.681 137.425 118.455 138.193C118.229 138.961 117.846 139.67 117.334 140.273C116.821 140.876 116.19 141.359 115.483 141.691C114.775 142.022 114.008 142.193 113.231 142.193Z" fill="white"/>
<path d="M113.231 142.622H32.1173C30.6913 142.619 29.3148 142.081 28.2432 141.109C27.1717 140.136 26.4778 138.795 26.2904 137.334L20.9249 94.7517C20.817 93.8952 20.8871 93.0247 21.1305 92.1984C21.3739 91.3721 21.7851 90.609 22.3366 89.96C22.8881 89.311 23.5672 88.7911 24.3286 88.4349C25.09 88.0787 25.9161 87.8945 26.7519 87.8945H107.866C109.292 87.8978 110.668 88.4357 111.74 89.4084C112.812 90.381 113.505 91.7225 113.693 93.1837L119.058 135.766C119.166 136.622 119.096 137.493 118.852 138.319C118.609 139.145 118.198 139.909 117.646 140.558C117.095 141.207 116.416 141.727 115.654 142.083C114.893 142.439 114.067 142.623 113.231 142.623V142.622ZM26.7519 88.7524C26.0343 88.7524 25.325 88.9106 24.6713 89.2164C24.0175 89.5223 23.4345 89.9687 22.961 90.526C22.4874 91.0832 22.1344 91.7384 21.9253 92.4478C21.7163 93.1573 21.6561 93.9046 21.7488 94.64L27.1142 137.223C27.275 138.477 27.8707 139.629 28.7908 140.464C29.7109 141.299 30.8928 141.761 32.1173 141.764H113.231C113.949 141.764 114.658 141.605 115.312 141.3C115.966 140.994 116.549 140.547 117.023 139.99C117.496 139.432 117.849 138.777 118.058 138.067C118.267 137.358 118.327 136.61 118.235 135.875L112.869 93.2923C112.708 92.0377 112.113 90.886 111.193 90.0509C110.272 89.2158 109.09 88.754 107.866 88.7511L26.7519 88.7524Z" fill="#292A2E"/>
<path d="M227.629 308.998C227.629 308.998 229.857 320.932 240.667 321.596C251.478 322.261 249.134 331.162 249.134 331.162H207.821V309.831L227.629 308.998Z" fill="black"/>
<path d="M149.032 301.464C149.032 301.464 145.934 313.188 155.351 318.717C164.768 324.245 158.863 331.162 158.863 331.162L121.792 312.314L130.903 293.173L149.032 301.464Z" fill="black"/>
<path d="M115.766 23.4069C115.766 23.4069 121.156 19.2023 122.492 9.52395C123.526 2.03011 116.837 6.88475 116.837 6.88475C116.837 6.88475 117.531 1.48183 113.722 2.01766C109.912 2.55349 107.781 8.23032 107.781 8.23032" fill="#0C0C0C"/>
<path d="M94.0343 2.65009C94.0343 2.65009 75.1338 4.74445 81.9661 31.2129L83.6387 31.3284L87.0337 31.5637" fill="#0C0C0C"/>
<path d="M112.601 58.8552C112.518 58.844 111.595 74.6552 93.8203 73.2778C81.5149 72.3255 77.1275 58.8328 76.8454 58.8328C78.1723 58.5413 79.8116 58.0991 80.4635 57.9471C81.8835 57.6064 83.1696 56.8269 84.1505 55.7124C85.1314 54.5978 85.7608 53.2011 85.9548 51.7078C86.315 49.4666 85.7055 37.9996 85.892 35.7318L104.781 40.0892C104.517 44.8786 102.67 55.982 109.143 57.9471C110.222 58.2721 111.382 58.5709 112.601 58.8552Z" fill="#E98862"/>
<path opacity="0.52" d="M105.046 53.4093C104.751 52.424 104.56 51.4081 104.478 50.3798C104.271 48.0332 104.313 45.6702 104.603 43.333C100.763 42.7974 97.1466 41.1597 94.1631 38.6058C93.8124 39.9445 91.8835 45.794 92.4182 47.0666C93.4257 49.4713 98.1687 53.4093 105.046 53.4093Z" fill="#0C0C0C"/>
<path d="M101.148 50.2798C93.6957 49.589 84.7766 44.7232 84.6482 34.269L84.5319 24.8366C84.4035 14.3824 89.6119 5.838 99.1363 5.71306C108.66 5.58769 115.884 13.969 116.012 24.4228L116.063 28.5986C116.057 30.0328 115.956 31.4648 115.761 32.8848C115.272 36.6416 114.514 42.3532 112.048 46.2173C109.718 49.8646 105.908 50.7212 101.148 50.2798Z" fill="#E98862"/>
<path d="M104.605 40.7242C106.143 40.7963 107.676 40.4937 109.079 39.8411C109.108 39.8283 109.135 39.8097 109.157 39.7864C109.179 39.7631 109.196 39.7355 109.208 39.7052C109.22 39.675 109.226 39.6426 109.225 39.61C109.225 39.5774 109.219 39.5452 109.206 39.5152C109.194 39.4852 109.176 39.458 109.153 39.4352C109.131 39.4124 109.104 39.3944 109.075 39.3822C109.045 39.3701 109.014 39.364 108.983 39.3643C108.951 39.3647 108.92 39.3714 108.891 39.3842C105.866 40.7174 103.12 40.522 100.949 38.8196C100.905 38.7839 100.859 38.7505 100.812 38.7196C100.758 38.6935 100.696 38.6894 100.638 38.7082C100.581 38.727 100.533 38.7674 100.503 38.8212C100.473 38.8751 100.463 38.9386 100.476 38.9993C100.489 39.06 100.524 39.1134 100.573 39.1489C100.591 39.1601 100.619 39.1829 100.656 39.2142C101.798 40.1127 103.173 40.6385 104.605 40.7242Z" fill="#0C0C0C"/>
<path d="M104.533 43.0792C104.811 43.0971 105.09 43.0902 105.367 43.0586C105.43 43.0516 105.488 43.019 105.528 42.9678C105.568 42.9166 105.587 42.851 105.58 42.7855C105.573 42.7201 105.542 42.66 105.492 42.6186C105.443 42.5772 105.379 42.5579 105.316 42.5648C103.651 42.7477 102.857 41.9595 102.823 41.9255C102.778 41.8811 102.717 41.8567 102.655 41.8576C102.592 41.8584 102.532 41.8845 102.488 41.9302C102.444 41.976 102.418 42.0378 102.418 42.1025C102.417 42.1672 102.44 42.2297 102.483 42.2768C103.056 42.7807 103.781 43.0642 104.533 43.0792Z" fill="#0C0C0C"/>
<path d="M112.867 30.6088C113.515 30.6088 114.04 30.066 114.04 29.3963C114.04 28.7267 113.515 28.1838 112.867 28.1838C112.219 28.1838 111.693 28.7267 111.693 29.3963C111.693 30.066 112.219 30.6088 112.867 30.6088Z" fill="#0C0C0C"/>
<path d="M101.405 29.8656C102.053 29.8656 102.579 29.3227 102.579 28.6531C102.579 27.9835 102.053 27.4406 101.405 27.4406C100.758 27.4406 100.232 27.9835 100.232 28.6531C100.232 29.3227 100.758 29.8656 101.405 29.8656Z" fill="#0C0C0C"/>
<path d="M85.2788 37.4462C82.3845 37.4844 79.999 34.3149 79.9612 31.3237C79.9234 28.3324 82.2503 26.6524 85.1447 26.6142L86.6606 28.5986L87.7665 37.4135L85.2788 37.4462Z" fill="#E98862"/>
<path d="M88.1566 32.6396C88.1566 32.6396 89.1341 17.8473 93.4743 16.9341C96.3649 16.3257 103.375 20.5629 109.867 19.283C112.708 18.7249 115.405 19.45 115.679 20.8364C115.787 21.3855 117.557 13.4946 113.109 7.50773C109.567 2.74197 97.9772 1.39382 92.7044 2.95665C78.1046 7.28533 84.5473 27.2655 84.5473 27.2655L85.1983 32.3648L88.1566 32.6396Z" fill="#0C0C0C"/>
<path d="M106.353 37.2332C106.359 37.2336 106.365 37.2336 106.372 37.2332C107.304 37.2233 108.868 37.0997 108.861 36.3784C108.855 35.7807 107.21 29.3478 107.022 28.6162C107.001 28.5592 106.961 28.5122 106.908 28.4843C106.856 28.4564 106.795 28.4497 106.738 28.4653C106.681 28.481 106.632 28.518 106.6 28.5691C106.568 28.6203 106.555 28.6819 106.565 28.742C107.296 31.5912 108.384 35.9774 108.389 36.3844C108.298 36.5561 107.335 36.7326 106.369 36.7429C106.308 36.7442 106.25 36.7697 106.207 36.814C106.164 36.8584 106.138 36.9182 106.137 36.9811C106.135 37.0441 106.157 37.1053 106.197 37.1522C106.238 37.1991 106.294 37.2281 106.355 37.2332H106.353Z" fill="#0C0C0C"/>
<path d="M109.537 22.8221C110.517 22.5433 111.552 22.5433 112.532 22.8221C113.014 22.9559 113.473 23.1637 113.895 23.4387C114.312 23.7078 114.694 24.0304 115.033 24.3987C115.098 24.4637 115.135 24.5523 115.138 24.6457C115.14 24.739 115.107 24.8296 115.046 24.8981C114.984 24.9666 114.899 25.0075 114.809 25.0121C114.719 25.0166 114.63 24.9845 114.563 24.9225L114.542 24.9036C114.228 24.6036 113.879 24.3456 113.503 24.1355C113.134 23.9267 112.737 23.7768 112.324 23.6911C111.513 23.5148 110.671 23.5634 109.883 23.832L109.85 23.844C109.72 23.8915 109.577 23.8837 109.452 23.8223C109.328 23.7609 109.232 23.6509 109.186 23.5166C109.141 23.3823 109.148 23.2346 109.207 23.1061C109.267 22.9775 109.373 22.8786 109.503 22.8312L109.537 22.8221Z" fill="#0C0C0C"/>
<path d="M102.596 23.4305C101.85 23.0559 101.021 22.8917 100.194 22.9544C99.7747 22.9826 99.3614 23.0764 98.9689 23.2326C98.5698 23.3892 98.1913 23.5969 97.8422 23.8509L97.8198 23.8663C97.7448 23.916 97.6543 23.9339 97.5669 23.9163C97.4795 23.8987 97.4021 23.847 97.3506 23.772C97.2992 23.6969 97.2777 23.6042 97.2906 23.5132C97.3036 23.4222 97.3499 23.3399 97.4201 23.2833C97.8034 22.965 98.224 22.6978 98.6718 22.4881C99.1254 22.2741 99.6074 22.1314 100.102 22.0648C100.597 21.9929 101.099 21.9916 101.595 22.0609C102.103 22.1263 102.6 22.2661 103.071 22.4761C103.198 22.533 103.297 22.6396 103.348 22.7725C103.399 22.9054 103.396 23.0536 103.341 23.1845C103.286 23.3155 103.183 23.4184 103.054 23.4708C102.926 23.5231 102.782 23.5205 102.656 23.4636C102.646 23.4593 102.636 23.4546 102.627 23.4494L102.596 23.4305Z" fill="#0C0C0C"/>
<path d="M108.142 12.6389C110.284 12.1763 111.487 9.15946 110.828 5.90063C110.17 2.6418 107.899 0.375002 105.756 0.837592C103.614 1.30018 102.411 4.31699 103.07 7.57582C103.729 10.8347 106 13.1015 108.142 12.6389Z" fill="#0C0C0C"/>
<path d="M126.072 298.153L157.334 196.23H100.668C89.2845 196.23 84.5394 186.254 84.5394 174.491C84.5394 162.727 95.7297 152.415 107.112 152.415H183.59C190.533 152.415 198.317 156.803 202.128 162.801C205.938 168.799 204.908 178.093 202.147 184.677L152.087 310.333" fill="#262626"/>
<path opacity="0.8" d="M126.072 298.153L157.334 196.23H100.668C89.2845 196.23 84.5394 186.254 84.5394 174.491C84.5394 162.727 95.7297 152.415 107.112 152.415H183.59C190.533 152.415 198.317 156.803 202.128 162.801C205.938 168.799 204.908 178.093 202.147 184.677L152.087 310.333" fill="#0A0A0A"/>
<path d="M205.445 320.08L153.173 196.23L84.5385 196.225C68.4564 194.922 61.091 185.813 61.3253 174.053C61.5563 162.441 67.2454 150.972 78.4303 150.972H170.937C179.213 151.148 185.724 160.599 188.794 168.543L232.249 312.498" fill="#262626"/>
<path d="M56.6442 151.114C56.6442 151.114 53.5961 171.657 58.4276 183.078C64.4594 197.336 87.0711 196.226 87.0711 196.226L85.7969 150.972L56.6442 151.114Z" fill="#262626"/>
<path d="M190.761 150.71L142.279 140.327C140.258 139.895 138.376 138.943 136.807 137.559C135.237 136.175 134.03 134.405 133.298 132.411L114.23 80.4801C113.649 78.9216 113.372 77.2598 113.415 75.5904C113.457 73.9209 113.819 72.2765 114.478 70.7518C115.137 69.2271 116.082 67.852 117.257 66.7056C118.432 65.5591 119.815 64.6639 121.325 64.0714C122.836 63.4788 124.445 63.2006 126.061 63.2527C127.676 63.3048 129.265 63.6861 130.737 64.3749C132.209 65.0637 133.535 66.0462 134.639 67.2661C135.743 68.4861 136.602 69.9193 137.168 71.4836L153.849 116.909L195.74 125.879C195.74 125.879 191.601 150.89 190.761 150.71Z" fill="#1F41BB"/>
<path d="M134.686 93.6697C134.126 100.468 130.158 142.877 129.618 151.25H56.6761C56.257 143.699 54.375 110.677 52.7859 95.9075C51.2688 81.8158 49.1421 75.4031 50.8895 71.0237C53.9712 63.3002 63.7806 59.8508 70.4235 58.9217C74.4795 58.3541 80.5802 57.9471 80.5802 57.9471C80.5802 57.9471 81.097 68.7465 93.414 69.3476C110.181 70.1633 109.061 57.9471 109.144 57.9471C111.86 57.9471 126.646 59.9886 130.343 62.4789C135.565 65.9965 137.108 70.7897 137.169 75.194C137.239 80.2646 135.321 85.9582 134.686 93.6697Z" fill="#1F41BB"/>
<path d="M131.819 128.321H131.802C131.775 128.319 131.748 128.311 131.724 128.298C131.7 128.285 131.678 128.267 131.661 128.246C131.643 128.224 131.63 128.199 131.621 128.173C131.613 128.146 131.61 128.117 131.612 128.089L133.506 104.581C133.507 104.552 133.514 104.525 133.527 104.499C133.539 104.474 133.556 104.451 133.577 104.433C133.598 104.415 133.622 104.401 133.648 104.392C133.675 104.384 133.702 104.381 133.73 104.384C133.757 104.387 133.783 104.395 133.808 104.408C133.832 104.421 133.853 104.438 133.871 104.46C133.889 104.481 133.902 104.506 133.91 104.533C133.919 104.56 133.922 104.588 133.92 104.616L132.026 128.125C132.021 128.178 131.998 128.228 131.96 128.264C131.921 128.301 131.871 128.321 131.819 128.321Z" fill="#0C0C0C"/>
<path d="M143.546 146.588L159.551 95.7434C159.832 94.85 160.379 94.0714 161.115 93.5193C161.851 92.9672 162.736 92.6698 163.646 92.6697H228.85C229.53 92.6697 230.2 92.836 230.805 93.1549C231.411 93.4739 231.935 93.9364 232.334 94.5048C232.734 95.0732 232.997 95.7312 233.103 96.4251C233.209 97.1189 233.155 97.8289 232.945 98.4969L216.94 149.342C216.659 150.235 216.112 151.014 215.376 151.566C214.64 152.118 213.755 152.415 212.845 152.415H147.641C146.961 152.415 146.291 152.249 145.686 151.93C145.08 151.611 144.556 151.149 144.157 150.58C143.757 150.012 143.494 149.354 143.388 148.66C143.282 147.966 143.336 147.256 143.546 146.588Z" fill="#292A2E"/>
<path opacity="0.2" d="M143.546 146.588L159.551 95.7434C159.832 94.85 160.379 94.0714 161.115 93.5193C161.851 92.9672 162.736 92.6698 163.646 92.6697H228.85C229.53 92.6697 230.2 92.836 230.805 93.1549C231.411 93.4739 231.935 93.9364 232.334 94.5048C232.734 95.0732 232.997 95.7312 233.103 96.4251C233.209 97.1189 233.155 97.8289 232.945 98.4969L216.94 149.342C216.659 150.235 216.112 151.014 215.376 151.566C214.64 152.118 213.755 152.415 212.845 152.415H147.641C146.961 152.415 146.291 152.249 145.686 151.93C145.08 151.611 144.556 151.149 144.157 150.58C143.757 150.012 143.494 149.354 143.388 148.66C143.282 147.966 143.336 147.256 143.546 146.588Z" fill="white"/>
<path d="M156.602 148.293H112.954C111.866 148.293 110.985 149.204 110.985 150.328V150.38C110.985 151.504 111.866 152.415 112.954 152.415H156.602C157.689 152.415 158.571 151.504 158.571 150.38V150.328C158.571 149.204 157.689 148.293 156.602 148.293Z" fill="#292A2E"/>
<path opacity="0.2" d="M156.602 148.293H112.954C111.866 148.293 110.985 149.204 110.985 150.328V150.38C110.985 151.504 111.866 152.415 112.954 152.415H156.602C157.689 152.415 158.571 151.504 158.571 150.38V150.328C158.571 149.204 157.689 148.293 156.602 148.293Z" fill="white"/>
<path d="M188.246 132.09C192.022 132.09 195.084 128.926 195.084 125.023C195.084 121.12 192.022 117.955 188.246 117.955C184.469 117.955 181.407 121.12 181.407 125.023C181.407 128.926 184.469 132.09 188.246 132.09Z" fill="white"/>
<path d="M135.347 84.1923H118.009V106.168H135.347V84.1923Z" fill="white"/>
<path d="M118.009 102.518C116.604 102.518 115.231 102.087 114.064 101.281C112.896 100.475 111.986 99.3287 111.449 97.9878C110.911 96.647 110.771 95.1716 111.045 93.7481C111.319 92.3247 111.995 91.0172 112.988 89.991C113.981 88.9647 115.246 88.2659 116.623 87.9827C118.001 87.6996 119.428 87.8449 120.726 88.4003C122.023 88.9557 123.132 89.8962 123.912 91.1029C124.692 92.3097 125.109 93.7284 125.109 95.1797C125.107 97.1252 124.358 98.9904 123.027 100.366C121.696 101.742 119.891 102.516 118.009 102.518ZM118.009 90.8476C117.179 90.8476 116.369 91.1017 115.679 91.5778C114.99 92.0539 114.453 92.7306 114.135 93.5222C113.818 94.3139 113.735 95.1851 113.897 96.0255C114.059 96.866 114.458 97.638 115.044 98.2439C115.631 98.8498 116.378 99.2624 117.191 99.4295C118.004 99.5966 118.847 99.5108 119.613 99.1828C120.379 98.8548 121.034 98.2994 121.494 97.5869C121.955 96.8743 122.201 96.0366 122.201 95.1797C122.2 94.031 121.758 92.9297 120.972 92.1175C120.186 91.3053 119.12 90.8486 118.009 90.8476Z" fill="white"/>
<path d="M119.009 98.4355C118.85 98.011 118.553 97.6576 118.168 97.437C117.783 97.2165 117.336 97.143 116.903 97.2294C116.912 97.2088 116.916 97.1869 116.916 97.1646L117.498 96.8958C117.905 96.7168 118.241 96.3977 118.447 95.9927C118.653 95.5876 118.717 95.1215 118.628 94.6731C118.567 94.3931 118.447 94.1307 118.276 93.9046C118.105 93.6786 117.887 93.4946 117.639 93.3659C117.391 93.2373 117.118 93.1671 116.84 93.1605C116.563 93.154 116.287 93.2112 116.034 93.3279L114.662 93.9621C114.662 93.9565 114.662 93.9509 114.659 93.9453C114.653 93.934 114.647 93.9233 114.639 93.9136C114.977 93.6503 115.219 93.2764 115.325 92.853C115.431 92.4295 115.395 91.9814 115.223 91.5818C114.842 90.5166 113.491 90.4316 112.599 90.8433L109.012 92.3387L110.094 91.204C110.434 90.834 110.624 90.3447 110.628 89.835C110.631 89.3253 110.448 88.8333 110.114 88.4583C109.934 88.271 109.72 88.1234 109.484 88.0245C109.248 87.9256 108.995 87.8774 108.74 87.883C108.485 87.8885 108.235 87.9476 108.003 88.0567C107.771 88.1658 107.563 88.3226 107.392 88.5175L94.6375 102.913L98.9996 107.254C100.354 108.603 102.067 109.503 103.92 109.838C105.772 110.174 107.68 109.93 109.397 109.138L117.171 105.536C117.579 105.357 117.914 105.038 118.12 104.633C118.326 104.228 118.39 103.762 118.301 103.313C118.213 102.911 118.003 102.548 117.701 102.278C117.399 102.007 117.022 101.844 116.624 101.811C116.628 101.788 116.628 101.765 116.624 101.743C116.62 101.721 116.611 101.699 116.599 101.681C116.587 101.662 116.571 101.645 116.553 101.633C116.534 101.62 116.514 101.612 116.492 101.607L117.928 100.945C118.382 100.747 118.746 100.377 118.947 99.9108C119.148 99.4449 119.17 98.9175 119.009 98.4355Z" fill="#E98862"/>
<path opacity="0.2" d="M112.068 95.1802C112.027 95.1803 111.987 95.1656 111.955 95.1386C111.924 95.1116 111.902 95.0739 111.894 95.0322C111.887 94.9904 111.893 94.9472 111.913 94.91C111.933 94.8728 111.965 94.844 112.003 94.8285L114.43 93.841C114.451 93.8322 114.474 93.828 114.497 93.8284C114.52 93.8288 114.543 93.8339 114.564 93.8434C114.586 93.8529 114.605 93.8667 114.621 93.8839C114.637 93.9011 114.65 93.9214 114.658 93.9436C114.667 93.9659 114.671 93.9896 114.67 94.0135C114.67 94.0374 114.665 94.061 114.656 94.083C114.646 94.1049 114.633 94.1247 114.617 94.1413C114.6 94.1579 114.58 94.171 114.559 94.1798L112.133 95.1673C112.112 95.1757 112.09 95.18 112.068 95.1802Z" fill="#0C0C0C"/>
<path opacity="0.2" d="M113.422 98.7257C113.381 98.7256 113.342 98.7108 113.31 98.6839C113.279 98.657 113.257 98.6197 113.25 98.5782C113.242 98.5368 113.248 98.4939 113.268 98.4568C113.287 98.4197 113.319 98.3908 113.356 98.3749L116.675 96.9954C116.718 96.9799 116.765 96.9821 116.806 97.0014C116.847 97.0208 116.88 97.0558 116.897 97.0993C116.914 97.1428 116.914 97.1914 116.897 97.2349C116.88 97.2784 116.848 97.3135 116.806 97.3329L113.488 98.7128C113.467 98.7213 113.445 98.7256 113.422 98.7257Z" fill="#0C0C0C"/>
<path opacity="0.2" d="M114.869 102.575C114.828 102.575 114.788 102.56 114.757 102.533C114.725 102.506 114.703 102.468 114.696 102.426C114.689 102.384 114.696 102.34 114.716 102.303C114.737 102.266 114.769 102.238 114.808 102.223L116.39 101.609C116.433 101.592 116.482 101.594 116.524 101.614C116.567 101.633 116.6 101.67 116.617 101.715C116.633 101.76 116.632 101.811 116.613 101.855C116.593 101.899 116.558 101.933 116.514 101.95L114.932 102.564C114.912 102.571 114.891 102.575 114.869 102.575Z" fill="#0C0C0C"/>
<path d="M122.698 70.214C122.621 70.2141 122.546 70.1923 122.481 70.1511C122.415 70.1099 122.362 70.0508 122.327 69.9804C121.382 68.0745 120.205 65.702 120.337 63.2148C120.443 61.2368 121.34 59.4794 122.207 57.7822C122.767 56.7563 123.244 55.6845 123.634 54.5776C124.11 53.0502 124.229 51.4283 123.984 49.844C123.739 48.2596 123.135 46.7576 122.222 45.4599C122.187 45.4147 122.162 45.3629 122.148 45.3075C122.133 45.2522 122.13 45.1943 122.137 45.1375C122.145 45.0807 122.163 45.0259 122.191 44.9766C122.22 44.9272 122.257 44.8842 122.302 44.8501C122.347 44.816 122.397 44.7915 122.451 44.7781C122.505 44.7646 122.561 44.7625 122.616 44.7718C122.671 44.7811 122.723 44.8016 122.77 44.8322C122.817 44.8628 122.858 44.9028 122.89 44.9499C123.881 46.358 124.538 47.9883 124.805 49.7081C125.072 51.4279 124.942 53.1885 124.427 54.8468C124.023 55.9994 123.528 57.1154 122.945 58.1832C122.081 59.8744 121.265 61.4716 121.17 63.2624C121.049 65.5169 122.123 67.6804 123.069 69.5889C123.102 69.6543 123.118 69.7272 123.115 69.8007C123.112 69.8741 123.091 69.9456 123.054 70.0084C123.017 70.0711 122.965 70.123 122.903 70.159C122.841 70.195 122.771 70.2139 122.7 70.214H122.698Z" fill="white"/>
<path d="M129.368 76.9152C129.276 76.9152 129.187 76.8836 129.114 76.8253C129.041 76.767 128.989 76.6854 128.966 76.5932C128.943 76.501 128.95 76.4036 128.987 76.3162C129.023 76.2288 129.087 76.1563 129.167 76.1102C130.707 75.2326 130.879 72.7901 130.156 70.9357C129.797 70.0834 129.377 69.2599 128.9 68.4721C128.262 67.4514 127.743 66.356 127.355 65.2091C126.958 63.8107 126.933 62.3277 127.283 60.9159C127.632 59.5041 128.343 58.2158 129.341 57.1863C129.421 57.1082 129.527 57.0656 129.636 57.0678C129.746 57.07 129.85 57.1168 129.926 57.198C130.002 57.2792 130.045 57.3883 130.043 57.5015C130.042 57.6147 129.998 57.7228 129.92 57.8024C129.03 58.7205 128.396 59.8694 128.084 61.1283C127.773 62.3872 127.795 63.7096 128.149 64.9566C128.518 66.0387 129.01 67.0718 129.615 68.0342C130.114 68.8586 130.553 69.7211 130.926 70.6141C131.773 72.7853 131.585 75.7126 129.568 76.8616C129.507 76.8966 129.438 76.915 129.368 76.9152Z" fill="white"/>
<path d="M109.261 114.341L48.0873 140.505C45.8817 141.438 43.4609 141.687 41.1207 141.221C38.7805 140.756 36.6221 139.596 34.9095 137.883C33.1968 136.17 32.0039 133.979 31.4765 131.577C30.9492 129.175 31.1102 126.667 31.9399 124.358L50.1853 72.8558C52.5442 66.2919 59.1891 62.5175 65.5408 64.9558C68.5907 66.1265 71.0657 68.5014 72.4214 71.558C73.777 74.6147 73.9022 78.1026 72.7695 81.2547L64.4474 105.631L100.3 91.3461" fill="#1F41BB"/>
<path d="M109.112 114.574C109.079 114.574 109.048 114.564 109.02 114.545C108.993 114.526 108.972 114.5 108.96 114.469L100.059 91.6273L64.3265 105.879C64.2969 105.891 64.2646 105.894 64.2336 105.887C64.2026 105.88 64.1741 105.864 64.1517 105.841C64.1294 105.818 64.114 105.788 64.1075 105.756C64.1011 105.724 64.1038 105.691 64.1154 105.66L69.6408 91.0039C69.6566 90.9621 69.6877 90.9286 69.7274 90.9106C69.7671 90.8926 69.8121 90.8916 69.8525 90.9079C69.8929 90.9242 69.9253 90.9564 69.9427 90.9974C69.9601 91.0384 69.9611 91.0849 69.9453 91.1267L64.5546 105.425L100.092 91.2512C100.132 91.2352 100.176 91.2362 100.216 91.2538C100.255 91.2715 100.286 91.3045 100.302 91.3456L109.264 114.342C109.279 114.384 109.278 114.43 109.261 114.471C109.245 114.512 109.213 114.545 109.173 114.562C109.153 114.57 109.133 114.574 109.112 114.574Z" fill="#0C0C0C"/>
<path d="M53.1042 110.414C53.0659 110.415 53.0287 110.401 52.9991 110.376C52.9696 110.351 52.9494 110.316 52.9423 110.277C52.9352 110.238 52.9415 110.198 52.9602 110.163C52.9788 110.129 53.0086 110.102 53.0444 110.088L64.2359 105.537C64.256 105.528 64.2775 105.524 64.2992 105.524C64.3209 105.524 64.3423 105.529 64.3623 105.538C64.3823 105.546 64.4003 105.559 64.4155 105.575C64.4306 105.591 64.4425 105.61 64.4505 105.631C64.4584 105.652 64.4623 105.674 64.4618 105.697C64.4614 105.719 64.4566 105.741 64.4478 105.762C64.439 105.782 64.4264 105.801 64.4106 105.816C64.3949 105.832 64.3763 105.844 64.356 105.852L53.164 110.403C53.1449 110.41 53.1246 110.414 53.1042 110.414Z" fill="#0C0C0C"/>
<path d="M55.7107 137.45C55.6727 137.45 55.6359 137.437 55.6066 137.412C55.5772 137.387 55.5571 137.352 55.5497 137.314C55.5424 137.275 55.5482 137.236 55.5662 137.201C55.5842 137.167 55.6132 137.14 55.6483 137.125L109.051 114.249C109.071 114.241 109.092 114.236 109.114 114.236C109.135 114.236 109.156 114.241 109.176 114.249C109.196 114.258 109.214 114.27 109.229 114.286C109.244 114.302 109.256 114.32 109.265 114.341C109.273 114.361 109.277 114.383 109.277 114.405C109.277 114.428 109.273 114.45 109.264 114.47C109.256 114.491 109.244 114.509 109.229 114.525C109.214 114.54 109.196 114.553 109.176 114.561L55.773 137.437C55.7533 137.446 55.7321 137.45 55.7107 137.45Z" fill="#0C0C0C"/>
<path d="M326.832 275.125C326.722 275.125 326.616 275.08 326.538 275C325.953 274.395 324.999 263.296 322.429 230.252C321.377 216.73 320.384 203.959 319.66 196.198C319.608 195.644 319.4 195.579 319.331 195.558C318.339 195.248 315.321 197.708 313.637 199.861C313.568 199.949 313.467 200.006 313.358 200.018C313.248 200.03 313.138 199.997 313.053 199.925C312.967 199.853 312.912 199.75 312.9 199.636C312.889 199.523 312.921 199.41 312.99 199.321C314.105 197.897 317.736 194.165 319.57 194.735C319.94 194.85 320.401 195.183 320.487 196.115C321.212 203.883 322.205 216.658 323.257 230.183C324.819 250.263 326.588 273.013 327.169 274.445C327.214 274.51 327.241 274.585 327.246 274.664C327.252 274.743 327.237 274.822 327.202 274.892C327.167 274.962 327.114 275.021 327.049 275.063C326.984 275.104 326.909 275.125 326.832 275.125Z" fill="#494949"/>
<path d="M318.592 210.44C325.486 204.729 327.771 195.84 323.696 190.586C319.62 185.331 310.728 185.702 303.835 191.413C296.941 197.123 294.656 206.012 298.731 211.267C302.806 216.521 311.698 216.15 318.592 210.44Z" fill="#1F41BB"/>
<path opacity="0.2" d="M318.592 210.44C325.486 204.729 327.771 195.84 323.696 190.586C319.62 185.331 310.728 185.702 303.835 191.413C296.941 197.123 294.656 206.012 298.731 211.267C302.806 216.521 311.698 216.15 318.592 210.44Z" fill="white"/>
<path d="M300.663 212.603C300.624 212.603 300.585 212.592 300.552 212.57C300.519 212.548 300.492 212.517 300.475 212.48C300.459 212.443 300.452 212.402 300.458 212.361C300.463 212.321 300.479 212.283 300.504 212.251L320.151 187.766C320.168 187.744 320.189 187.725 320.213 187.712C320.238 187.698 320.264 187.69 320.292 187.687C320.319 187.684 320.347 187.687 320.373 187.695C320.4 187.703 320.424 187.717 320.445 187.735C320.467 187.753 320.484 187.776 320.497 187.801C320.51 187.826 320.517 187.854 320.52 187.882C320.522 187.911 320.519 187.939 320.51 187.967C320.502 187.994 320.488 188.019 320.47 188.04L300.823 212.526C300.804 212.55 300.779 212.57 300.752 212.583C300.724 212.596 300.694 212.603 300.663 212.603Z" fill="white"/>
<path d="M331.117 269.876C331.051 269.876 330.986 269.86 330.927 269.829C330.868 269.797 330.817 269.752 330.779 269.696C330.74 269.64 330.715 269.575 330.706 269.507C330.696 269.44 330.703 269.37 330.725 269.306L338.105 247.372C338.322 246.727 338.692 246.149 339.182 245.691C339.671 245.233 340.264 244.909 340.906 244.749C341.548 244.588 342.218 244.597 342.856 244.774C343.494 244.952 344.078 245.291 344.556 245.762L348.457 249.614C348.537 249.693 348.583 249.801 348.586 249.915C348.588 250.029 348.547 250.139 348.471 250.222C348.395 250.304 348.29 250.352 348.18 250.354C348.07 250.357 347.963 250.314 347.883 250.235L343.982 246.384C343.605 246.012 343.143 245.744 342.64 245.604C342.137 245.464 341.607 245.457 341.101 245.584C340.594 245.71 340.126 245.966 339.74 246.327C339.353 246.689 339.061 247.145 338.889 247.654L331.51 269.588C331.481 269.672 331.428 269.745 331.358 269.797C331.288 269.848 331.204 269.876 331.117 269.876Z" fill="#494949"/>
<path d="M359.358 261.759C364.467 257.579 364.164 248.387 358.68 241.228C353.197 234.069 344.61 231.653 339.501 235.832C334.392 240.011 334.696 249.203 340.179 256.362C345.663 263.522 354.25 265.938 359.358 261.759Z" fill="#1F41BB"/>
<path d="M323.479 273.727C323.386 273.727 323.295 273.694 323.222 273.634C323.149 273.574 323.097 273.491 323.076 273.397L310.691 219.881C310.607 219.516 310.426 219.183 310.17 218.917C309.914 218.652 309.592 218.464 309.239 218.375C308.886 218.286 308.517 218.3 308.171 218.414C307.825 218.528 307.517 218.739 307.279 219.023L303.462 223.582C303.426 223.624 303.383 223.659 303.334 223.685C303.285 223.71 303.232 223.725 303.178 223.729C303.123 223.733 303.068 223.726 303.017 223.708C302.965 223.691 302.917 223.663 302.876 223.626C302.834 223.589 302.801 223.544 302.776 223.493C302.752 223.443 302.737 223.388 302.733 223.332C302.729 223.276 302.736 223.219 302.753 223.165C302.77 223.112 302.798 223.062 302.833 223.02L306.651 218.461C306.989 218.058 307.427 217.759 307.919 217.598C308.41 217.436 308.935 217.417 309.436 217.543C309.936 217.67 310.394 217.936 310.758 218.314C311.121 218.691 311.378 219.165 311.498 219.683L323.882 273.199C323.908 273.31 323.89 273.426 323.832 273.523C323.774 273.62 323.682 273.69 323.575 273.716C323.543 273.724 323.511 273.727 323.479 273.727Z" fill="#494949"/>
<path d="M318.912 235.47C320.417 226.473 316.433 218.249 310.013 217.101C303.592 215.954 297.167 222.318 295.661 231.315C294.156 240.312 298.14 248.536 304.561 249.684C310.981 250.831 317.406 244.467 318.912 235.47Z" fill="#1F41BB"/>
<path d="M326.833 275.125C326.816 275.125 326.799 275.124 326.781 275.122C326.672 275.108 326.573 275.05 326.505 274.96C326.437 274.871 326.406 274.757 326.42 274.644L334.328 208.285C334.414 207.561 334.701 206.879 335.153 206.32C335.605 205.761 336.204 205.349 336.877 205.134C337.551 204.918 338.27 204.908 338.949 205.106C339.628 205.303 340.237 205.698 340.703 206.245L349.742 216.825C349.815 216.911 349.853 217.022 349.846 217.136C349.839 217.25 349.789 217.356 349.706 217.431C349.623 217.507 349.515 217.545 349.405 217.538C349.295 217.531 349.192 217.479 349.119 217.394L340.08 206.813C339.72 206.39 339.249 206.085 338.724 205.932C338.199 205.78 337.643 205.788 337.122 205.955C336.602 206.121 336.139 206.44 335.789 206.873C335.44 207.305 335.219 207.832 335.153 208.391L327.243 274.748C327.231 274.852 327.182 274.948 327.107 275.017C327.031 275.086 326.934 275.125 326.833 275.125Z" fill="#494949"/>
<path d="M359.012 222.704C362.165 216.812 358.455 208.452 350.723 204.033C342.992 199.613 334.168 200.807 331.014 206.7C327.861 212.592 331.571 220.951 339.303 225.371C347.034 229.791 355.858 228.597 359.012 222.704Z" fill="#1F41BB"/>
<path opacity="0.2" d="M359.358 261.759C364.467 257.579 364.164 248.387 358.68 241.228C353.197 234.069 344.61 231.653 339.501 235.832C334.392 240.011 334.696 249.203 340.179 256.362C345.663 263.522 354.25 265.938 359.358 261.759Z" fill="white"/>
<path opacity="0.5" d="M318.912 235.47C320.417 226.473 316.433 218.249 310.013 217.101C303.592 215.954 297.167 222.318 295.661 231.315C294.156 240.312 298.14 248.536 304.561 249.684C310.981 250.831 317.406 244.467 318.912 235.47Z" fill="white"/>
<path opacity="0.5" d="M359.012 222.704C362.165 216.812 358.455 208.452 350.723 204.033C342.992 199.613 334.168 200.807 331.014 206.7C327.861 212.592 331.571 220.951 339.303 225.371C347.034 229.791 355.858 228.597 359.012 222.704Z" fill="white"/>
<path d="M336.947 331.431H316.717L313.365 264.536H340.3L336.947 331.431Z" fill="#292A2E"/>
<path opacity="0.3" d="M336.947 331.431H316.717L313.365 264.536H340.3L336.947 331.431Z" fill="white"/>
<path d="M359.359 261.971C359.327 261.971 359.296 261.963 359.268 261.949C359.24 261.935 359.215 261.915 359.195 261.889L339.337 235.962C339.303 235.918 339.287 235.861 339.294 235.804C339.3 235.748 339.328 235.696 339.371 235.661C339.414 235.625 339.469 235.609 339.524 235.616C339.579 235.622 339.629 235.651 339.663 235.696L359.521 261.622C359.545 261.654 359.561 261.692 359.565 261.732C359.569 261.772 359.562 261.813 359.546 261.849C359.529 261.886 359.502 261.916 359.469 261.938C359.436 261.959 359.398 261.971 359.359 261.971Z" fill="white"/>
<path d="M357.691 224.782C357.647 224.781 357.604 224.766 357.569 224.739L332.158 205.565C332.136 205.548 332.117 205.527 332.103 205.503C332.089 205.479 332.079 205.452 332.075 205.424C332.071 205.396 332.072 205.368 332.078 205.341C332.085 205.313 332.096 205.287 332.112 205.265C332.128 205.242 332.149 205.222 332.172 205.208C332.195 205.193 332.221 205.183 332.248 205.179C332.275 205.175 332.303 205.176 332.329 205.182C332.356 205.189 332.381 205.201 332.403 205.218L357.814 224.394C357.848 224.421 357.874 224.458 357.887 224.501C357.9 224.544 357.9 224.59 357.886 224.632C357.873 224.675 357.847 224.712 357.812 224.739C357.777 224.765 357.735 224.78 357.691 224.78V224.782Z" fill="white"/>
<path d="M303.528 249.404C303.51 249.404 303.492 249.402 303.474 249.397C303.421 249.382 303.376 249.346 303.348 249.297C303.321 249.248 303.313 249.189 303.327 249.134L311.417 217.812C311.423 217.784 311.435 217.758 311.452 217.735C311.468 217.712 311.489 217.693 311.513 217.679C311.537 217.664 311.563 217.655 311.59 217.651C311.617 217.647 311.645 217.649 311.672 217.656C311.699 217.664 311.723 217.676 311.745 217.694C311.767 217.711 311.785 217.733 311.799 217.758C311.813 217.783 311.821 217.81 311.825 217.838C311.828 217.866 311.826 217.895 311.818 217.923L303.729 249.245C303.717 249.291 303.691 249.331 303.655 249.36C303.618 249.389 303.574 249.404 303.528 249.404Z" fill="white"/>
</svg>
